<svg xmlns="http://www.w3.org/2000/svg" width="38" height="38" viewBox="0 0 38 38">
  <g id="Group_2013" data-name="Group 2013" transform="translate(-597 -356)">
    <circle id="Ellipse_109" data-name="Ellipse 109" cx="19" cy="19" r="19" transform="translate(597 356)" fill="#fff" opacity="0.151"/>
    <g id="noun_Email_2817883" transform="translate(605.873 368.923)">
      <g id="Group_1240" data-name="Group 1240" transform="translate(0 0)">
        <path id="Path_465" data-name="Path 465" d="M.415,0H17.984A.416.416,0,0,1,18.4.415V12.709a.392.392,0,0,1-.415.415H.415A.392.392,0,0,1,0,12.709V.415A.416.416,0,0,1,.415,0ZM17.07,12.294,12.045,6.521,10.466,7.6a2.119,2.119,0,0,1-2.492,0l-1.62-1.08L1.329,12.294ZM.831,11.629,5.69,6.022.831,2.617Zm0-10.009,7.6,5.316a1.309,1.309,0,0,0,1.537,0l7.6-5.316V.831H.831Zm16.738,1L12.709,6.022l4.859,5.607Z" fill="#e2e2e2"/>
      </g>
    </g>
  </g>
</svg>
