<svg class="logo-svg" xmlns="http://www.w3.org/2000/svg" viewBox="0 0 755.412 236.631">

                <g transform="translate(-0.029 0.015)">

                    <path class="a" d="M298.682,81.053c-38.027-34.224-25.94-60.435,2.445-62.744,16.84-1.494,27.977,9.642,25.261,21.865C321.77,60.681,294.2,52.669,293.793,53.619c-1.494,5.161,9.371,31.644,33.681,19.692,29.335-13.853,24.446-65.867-22.409-63.287-48.891,2.58-66.818,54.46-14.939,101.857,33.273,30.285,43.323,44.953,39.385,64.781-3.8,18.606-22.816,25.668-41.829,23.631-21.594-2.445-32.187-19.421-30.693-38.57.407-10.457,7.741-16.569,19.013-17.112,8.963-.543,16.161,3.938,16.3,3.531,10.322-20.779-18.606-42.373-37.483-26.211-27.569,24.31-19.013,83.387,28.792,89.363,33.409,4.346,67.769-14.8,66.818-50.114C350.018,136.735,338.61,117.314,298.682,81.053Z" transform="translate(85.647 3.562)"/>
                    <path class="a" d="M462.952,141.111c-6.383-.407-10.457,2.173-11.408,7.741-.951,5.3,2.309,9.235,5.025,9.507,3.124.136,8.963-2.309,11.815-8.149C471.373,144.235,467.027,141.383,462.952,141.111Z" transform="translate(161.624 50.521)"/>
                    <path class="a" d="M583.875,135.13c-2.58,10.865-6.926,21.322-10.593,27.026-3.26,5.568-5.84,4.482-5.568-14.532.272-14.667.543-25.532.951-33.952a33,33,0,0,0,7.334,0c9.371-.951,4.482-13.309,3.667-12.9a64.75,64.75,0,0,1-10.593,2.852c.815-10.865,1.358-14.124,1.63-15.346.136-1.086-8.149-2.988-11.272,4.482a55.018,55.018,0,0,0-2.988,12.9l-6.247.543c-.407,0-3.26,3.124.407,4.21,1.086.407,2.988.815,5.3,1.494-.815,9.371-1.222,21.322-1.086,34.767-2.988,7.334-6.79,13.038-10.321,16.026-7.741,6.383-16.026,5.568-18.606-5.7,18.606-11.272,34.9-34.631,13.988-38.841-14.8-2.716-28.248,13.581-27.433,37.483a40.6,40.6,0,0,0,.543,5.568c-.136.272-.407.679-.543.951-3.667,5.976-6.519,3.938-5.568-15.346.679-17.248.543-25.4-4.482-27.977-4.346-2.445-10.457.951-14.8,10.729a107.655,107.655,0,0,0-6.111,17.791,249.851,249.851,0,0,1,2.988-28.384c0-.815-9.642-2.852-12.494,4.618-2.988,7.605-3.667,20.236-3.124,35.989,0,6.247.272,15.618,2.988,17.248,2.445,1.494,7.2.951,8.013.136.136-.136.272-3.124.679-10.05v-.136c2.173-10.729,6.519-27.977,9.371-33.545,2.716-5.7,5.432-4.346,4.618,14.667-.407,11.544.815,27.026,4.753,28.792,4.21,1.766,9.642-1.766,15.075-10.322,1.63,4.753,4.21,8.963,8.42,10.322,7.605,2.58,16.161-.815,23.767-10.05a77.025,77.025,0,0,0,8.42-12.766c0,1.766.136,3.667.136,5.568.136,6.247.951,15.346,4.889,17.248,4.482,1.9,10.05-1.9,15.618-10.865,5.568-8.828,9.371-20.915,11.951-31.372C588.221,131.735,584.419,132.414,583.875,135.13Zm-58.534,12.359c.543-15.618,5.432-27.705,10.729-26.211,4.346,1.086,1.222,23.223-10.593,31.915A38.011,38.011,0,0,1,525.342,147.489Z" transform="translate(167.819 31.242)"/>
                    <path class="a" d="M169.751,76.6c24.31-10.865,41.965-27.569,73.337-31.1v-.136c.815-31.915-26.211-15.211-29.742-12.9-14.939,10.593-28.384,23.9-43.187,33,.951-37.483-8.963-64.374-26.89-65.46C122.761-.81,103.748,23.636,109.18,57.724c2.852,16.3,17.248,29.878,36.4,26.347a108.925,108.925,0,0,0,13.853-3.4,192.9,192.9,0,0,1-1.9,20.915c-7.877,52.015-36.533,83.794-49.57,80.263-4.753-.951-9.642-5.025-16.7-52.966,1.222-6.519,2.173-13.445,2.852-20.507,5.976-65.867-4.074-83.93-9.1-85.152-14.4-2.716-23.223,14.4-18.877,66.139,2.173,25.8,4.618,46.718,7.2,63.423.136.543.272,1.63.543,2.988-12.359,27.026-27.977,34.631-34.224,31.1-5.3-2.852-9.235-11.136-12.359-109.734A436.8,436.8,0,0,1,29.6,18.883c-.136-2.037-21.05-5.161-26.347,10.593C-.689,41.7-.282,60.44.669,83.12c2.58,72.794,7.741,116.117,16.84,126.574,11.272,13.038,38.3-1.9,58.805-35.31h0l.951-1.63c4.074,17.519,8.149,27.977,12.494,33C104.7,223,154.4,176.557,167.035,99.961A227.9,227.9,0,0,0,169.751,76.6Zm-22.137-2.037c-16.84,3.4-28.384-5.7-30.693-20.371-1.9-16.433,8.149-27.841,22.952-25.532,12.223,1.766,19.013,17.927,19.557,42.372A75.071,75.071,0,0,1,147.614,74.565Z" transform="translate(0 0)"/>
                    <path class="a" d="M274.172,88.506c-11-5.84-27.841-2.852-41.422,43.459,1.222-91.943,5.568-112.858,6.111-118.7.543-2.037-14.26-7.605-22.952,9.235-7.2,13.988-10.186,56.361-9.507,121.278-6.111,15.618-14.26,27.977-21.729,34.224-15.618,13.038-32.458,11.272-37.755-11.544,37.755-22.952,71.028-70.485,28.384-78.905-30.15-5.568-57.447,27.569-55.682,76.325.543,16.3,6.111,38.027,20.915,42.916,15.346,5.161,32.73-1.766,48.484-20.236a147.786,147.786,0,0,0,17.655-27.3c.136,4.074.136,8.284.272,12.494.543,12.766,2.309,31.372,10.186,34.767,8.963,4.074,17.927.815,31.1-11.951,14.532-13.988,30.421-39.113,35.039-66.139C286.938,107.655,282.864,93.123,274.172,88.506ZM145.7,147.719c1.222-31.644,11-56.225,21.729-53.373,8.692,2.309,2.58,47.262-21.458,64.917A78.415,78.415,0,0,1,145.7,147.719Zm111.364-6.111c-2.58,27.3-8.963,42.373-16.3,49.57-6.383,6.655-8.149,0-8.42-28.113,0-.272.272-.272.272-.543,8.42-41.422,16.3-61.25,22-52.151C257.332,114.038,258.554,125.31,257.06,141.607Z" transform="translate(42.796 3.85)"/>
                    <path class="a" d="M488.151,126.666c11.136.815,24.31,1.358,33.681.272,19.285-2.173,8.692-24.989,7.334-24.446-12.494,2.988-24.989,5.7-37.891,7.741C512.6,81.442,523.6,32.958,513.14,17.068,504.176,3.08,481.632,8.512,475.249,35.4c-4.889,21.05-8.149,48.756-9.914,78.362l-7.877.543c-.543,0-6.383,5.976,1.222,8.013l6.111,1.63c-.272,6.247,0,11.544-.272,17.791-4.753,14.4-11.136,27.977-16.161,35.989-6.926,11.272-11.544,8.963-11.272-29.606.543-105.252,5.568-128.2,6.111-134.044.272-2.037-14.26-7.877-22.952,8.963-7.2,13.988-10.186,56.5-9.507,121.006-6.247,15.754-14.26,28.113-21.865,34.5-15.618,13.038-32.458,11.272-37.755-11.544C388.874,144.05,422.147,96.516,379.5,88.1c-30.15-5.568-57.447,27.569-55.682,76.325.543,16.3,6.111,38.027,20.915,42.916,15.346,5.161,32.73-1.766,48.484-20.236a144.888,144.888,0,0,0,17.791-27.433c.136,4.074.136,8.284.272,12.63.543,12.766,2.309,31.372,10.186,35.039,8.963,3.8,19.964-3.8,31.372-22,3.938-6.111,9.507-17.791,12.63-25.125,0,.543.136,1.494.136,2.852-.407,13.581-.951,26.211-.815,37.483,0,8.284-.272,32.594,1.358,32.594,11.951.815,22.68-14.26,22.68-45.768C488.558,171.891,488.015,139.84,488.151,126.666Zm7.2-76.732c3.8-21.865,9.642-24.446,12.494-19.421,4.618,8.556-2.309,44.953-17.519,70.485C491.546,78.725,493.04,62.564,495.349,49.934Zm-145.316,98.19c1.222-31.644,11-56.225,21.729-53.373,8.692,2.309,2.58,47.262-21.458,64.917A78.414,78.414,0,0,1,350.033,148.124Z" transform="translate(115.919 3.444)"/>
                </g>

            </svg>